<?xml version="1.0" standalone="no"?>
<!DOCTYPE svg PUBLIC "-//W3C//DTD SVG 20010904//EN"
 "http://www.w3.org/TR/2001/REC-SVG-20010904/DTD/svg10.dtd">
<svg version="1.0" xmlns="http://www.w3.org/2000/svg"
 width="960.000000pt" height="960.000000pt" viewBox="0 0 960.000000 960.000000"
 preserveAspectRatio="xMidYMid meet">
<metadata>
Created by potrace 1.11, written by Peter Selinger 2001-2013
</metadata>
<g transform="translate(0.000000,960.000000) scale(0.100000,-0.100000)"
fill="#000000" stroke="none">
<path d="M0 4800 l0 -4800 4800 0 4800 0 0 4800 0 4800 -4800 0 -4800 0 0
-4800z m5195 2534 c29 -5 31 -10 73 -147 24 -78 66 -213 93 -299 l50 -157 72
-21 c153 -45 327 -115 327 -131 0 -11 -53 -44 -365 -231 -561 -335 -743 -439
-749 -430 -2 4 -7 35 -11 70 l-7 62 -299 0 -299 0 -2 -552 -3 -553 -475 -5
-475 -5 -3 -115 c-2 -63 0 -134 3 -157 l6 -43 475 0 474 0 0 -555 0 -555 300
0 299 0 3 75 3 74 257 -152 c142 -84 260 -156 264 -159 6 -7 -25 -98 -51 -148
-15 -29 -15 -29 17 -34 18 -3 116 -11 218 -17 102 -6 194 -16 205 -21 26 -14
197 -119 209 -129 17 -15 -275 -135 -409 -169 l-40 -10 -80 -272 -81 -272 -34
-9 c-19 -5 -124 -9 -234 -9 -154 0 -201 3 -211 13 -7 8 -41 106 -74 219 -34
113 -71 233 -83 267 -21 62 -21 62 -72 74 -87 20 -237 69 -324 106 l-82 35
-202 -151 c-112 -83 -218 -158 -237 -167 -31 -15 -36 -15 -70 1 -61 29 -331
229 -331 245 0 11 100 304 149 436 22 61 41 116 41 121 0 5 -24 39 -54 75 -66
79 -133 176 -171 247 l-28 52 -201 -8 c-111 -5 -250 -8 -310 -8 l-108 0 -44
116 c-57 152 -96 288 -89 309 6 20 110 95 348 252 l169 112 -5 59 c-3 32 -7
60 -9 62 -2 2 -110 1 -239 -2 l-236 -6 -18 -34 c-35 -64 -108 -103 -193 -103
-147 0 -252 141 -212 284 48 171 269 217 388 81 18 -20 32 -41 32 -47 0 -8 65
-9 236 -5 130 3 238 8 241 11 3 2 6 28 7 57 l1 52 -206 141 c-309 212 -310
213 -303 244 12 54 67 229 95 304 27 68 33 77 61 83 32 7 507 -2 570 -11 l37
-6 70 106 c39 57 98 137 131 176 33 40 60 78 60 84 0 6 -28 90 -61 186 -34 96
-77 224 -97 283 l-35 108 20 27 c39 53 343 247 370 237 7 -2 101 -71 210 -153
109 -82 216 -161 239 -175 l40 -27 105 40 c58 21 155 52 215 68 l109 28 85
281 c47 155 88 284 91 287 22 22 347 29 454 10z m1598 -707 c390 -391 637
-883 724 -1447 25 -162 25 -567 0 -730 -42 -270 -115 -506 -231 -746 -132
-272 -263 -459 -479 -681 l-139 -142 -84 42 -83 41 129 124 c387 369 615 800
712 1342 30 171 33 595 5 763 -90 531 -300 940 -674 1314 l-143 142 68 40 c37
22 73 40 80 41 7 0 58 -46 115 -103z m-621 -268 c61 -44 150 -127 238 -223
383 -417 566 -943 522 -1504 -29 -369 -130 -663 -329 -959 -171 -255 -421
-506 -486 -489 -20 5 -324 184 -354 208 -7 5 -66 85 -132 176 -66 92 -126 175
-134 186 -12 17 -17 13 -66 -53 -29 -39 -57 -71 -61 -71 -9 0 -572 321 -632
361 -20 13 -39 33 -42 44 -3 11 -6 351 -6 756 0 688 1 738 18 757 18 21 229
148 872 524 212 124 417 244 455 266 81 47 96 50 137 21z m-5065 -391 c46 -46
83 -86 83 -91 0 -4 -33 -47 -74 -95 -167 -199 -262 -383 -327 -636 -36 -142
-48 -300 -37 -494 18 -316 147 -625 368 -880 l73 -84 -89 -90 -89 -89 -48 53
c-65 72 -175 219 -221 295 -357 597 -335 1359 57 1931 60 88 203 262 215 262
4 0 44 -37 89 -82z m356 -365 c85 -85 86 -86 69 -108 -9 -13 -38 -49 -63 -81
-92 -118 -161 -263 -196 -410 -24 -107 -25 -348 0 -449 40 -162 111 -307 214
-434 l62 -76 -87 -87 -86 -88 -38 37 c-90 88 -205 276 -259 425 -50 136 -69
239 -76 403 -4 126 -2 168 16 266 36 203 110 379 223 531 49 66 126 158 132
158 1 0 41 -39 89 -87z m358 -359 l87 -87 -38 -51 c-78 -105 -110 -201 -110
-331 0 -121 37 -227 113 -327 l34 -45 -85 -86 c-46 -48 -87 -87 -91 -87 -10 0
-65 71 -106 134 -81 127 -117 256 -116 421 0 133 22 228 79 342 35 69 128 202
142 203 2 0 44 -39 91 -86z m6629 -194 l0 -40 -60 0 -61 0 3 -165 3 -165 -47
0 -48 0 0 165 0 165 -55 0 c-52 0 -55 2 -55 24 0 13 -3 31 -6 40 -5 14 13 16
160 16 l166 0 0 -40z m-613 -154 c26 -23 28 -29 31 -120 l4 -96 -36 0 c-20 0
-36 5 -36 10 0 7 -6 7 -19 0 -34 -18 -93 -12 -118 12 -57 53 2 128 102 128 37
0 43 8 23 28 -14 14 -53 16 -77 2 -24 -12 -59 21 -39 37 21 17 40 21 90 22 36
1 53 -5 75 -23z m259 6 c29 -23 44 -54 44 -91 l0 -31 -80 0 c-65 0 -80 -3 -80
-15 0 -9 12 -21 26 -27 21 -10 31 -9 53 3 25 15 29 15 49 -2 28 -22 28 -25 -8
-44 -39 -20 -105 -19 -141 2 -104 61 -54 223 69 223 29 0 55 -7 68 -18z m416
-147 l-3 -165 61 0 60 0 0 -40 0 -40 -166 0 -165 0 3 38 3 37 58 3 57 3 0 164
0 165 48 0 47 0 -3 -165z m178 101 c0 -77 13 -116 37 -116 39 0 48 17 51 100
l4 80 34 0 34 0 0 -120 0 -120 -30 0 c-16 0 -33 7 -38 16 -8 14 -10 14 -21 0
-8 -10 -30 -16 -56 -16 -66 0 -79 22 -83 141 l-4 99 36 0 36 0 0 -64z m394 33
c24 -28 26 -38 26 -120 l0 -89 -29 0 c-17 0 -33 5 -36 10 -4 7 -13 6 -26 -1
-36 -19 -100 -7 -122 23 -40 54 0 104 92 115 53 6 59 11 39 31 -14 14 -53 16
-77 2 -14 -7 -23 -5 -36 10 -16 18 -15 19 12 34 15 8 51 15 80 16 45 0 54 -4
77 -31z"/>
<path d="M2220 4878 c-59 -21 -77 -87 -35 -132 68 -73 188 19 130 101 -20 28
-64 43 -95 31z"/>
<path d="M4840 4806 l0 -286 40 0 40 0 2 214 3 214 149 -214 149 -214 49 0 48
0 0 285 0 285 -45 0 -45 0 -2 -211 -3 -210 -146 208 -146 208 -46 3 -47 3 0
-285z"/>
<path d="M5870 4805 l0 -285 40 0 40 0 0 126 0 125 37 -3 c36 -3 40 -7 109
-123 l71 -120 52 -3 c29 -2 51 1 48 5 -3 4 -37 61 -76 126 -39 65 -71 120 -71
122 0 3 15 11 33 19 18 7 45 28 60 45 22 27 27 42 27 89 0 73 -25 116 -83 142
-34 16 -65 20 -164 20 l-123 0 0 -285z m240 192 c32 -16 50 -52 41 -85 -10
-39 -62 -62 -138 -62 l-63 0 0 80 0 80 68 0 c37 0 78 -6 92 -13z"/>
<path d="M6320 4804 l0 -286 148 4 c141 3 149 4 200 33 101 55 146 132 146
250 1 70 -3 87 -29 133 -34 62 -86 107 -155 133 -40 15 -77 19 -180 19 l-130
0 0 -286z m263 195 c138 -38 190 -217 94 -326 -47 -54 -97 -73 -194 -73 l-83
0 0 205 0 205 73 0 c39 0 89 -5 110 -11z"/>
<path d="M5548 4910 c-56 -17 -97 -51 -122 -102 -48 -95 -25 -197 57 -262 36
-29 45 -31 116 -31 68 0 83 3 120 28 56 37 61 55 25 83 l-29 23 -25 -24 c-38
-37 -82 -49 -125 -35 -33 11 -75 55 -75 79 0 7 47 11 145 11 l145 0 0 50 c0
91 -49 155 -135 179 -46 12 -59 13 -97 1z m103 -80 c21 -12 51 -64 42 -74 -4
-3 -51 -6 -105 -6 -102 0 -114 6 -85 42 35 44 103 61 148 38z"/>
<path d="M7763 4782 c-17 -2 -37 -10 -44 -19 -11 -13 -10 -17 6 -29 24 -18 28
-18 55 4 31 25 23 48 -17 44z"/>
<path d="M7992 4858 c-21 -21 -13 -28 33 -28 25 0 45 4 45 8 0 15 -24 32 -45
32 -12 0 -26 -5 -33 -12z"/>
<path d="M8998 4782 c-39 -5 -56 -28 -35 -49 13 -14 21 -14 42 -5 28 13 43 39
29 51 -5 3 -21 5 -36 3z"/>
</g>
</svg>
